<svg version="1" xmlns="http://www.w3.org/2000/svg" width="933.333" height="933.333" viewBox="0 0 700.000000 700.000000"><path d="M405.9.4c-.2.2-2.4.6-4.9 1-6.2.8-12.3 2.3-53 13.2-19.5 5.3-42.2 11.4-50.5 13.6-8.2 2.1-15.7 4.1-16.5 4.3-.8.3-3.1.9-5 1.4-1.9.5-19.5 5.2-39 10.4-19.5 5.3-44.9 12.1-56.5 15.1-48.9 13-53.3 14.6-68.3 24.3C102.6 90 91 101.2 85 110c-6.9 10.1-14.6 27.3-16.4 36.6-.2 1-1.6 5.9-2.9 10.9-2.3 8-4.6 16.5-10.8 40-1 3.8-3.2 12.2-4.9 18.5-5.2 19.3-22.1 82-24.1 90-1.1 4.1-3.5 13.1-5.4 20-1.9 6.9-4.5 16.8-5.9 22-1.4 5.2-3.2 12-4.1 15-.8 3-1.7 6.6-2 8-.2 1.4-1.1 4.7-2 7.5-12.4 39.5-5.3 78 19.5 105.7 5.9 6.6 188.7 188.9 193 192.5 12.2 10.2 29.2 18.1 45.5 21.4 10.9 2.1 32.1 1.6 43-1 8.9-2.1 41.4-10.8 59-15.6 5-1.4 9.9-2.7 11-3 1.1-.2 9.4-2.4 18.5-4.9 9.1-2.4 20.8-5.6 26-6.9 5.2-1.4 23-6.2 39.5-10.6 16.5-4.5 36.1-9.7 43.5-11.7 31.9-8.5 56.8-15.4 60.6-16.8 24.6-8.7 47.1-29.1 57.8-52.1 5.1-11 5.1-11.1 12.5-39 2.8-10.5 5.6-20.6 6.1-22.5.6-1.9 2.4-8.7 4-15 1.7-6.3 3.7-13.8 4.4-16.5.8-2.8 5.4-19.6 10.1-37.5 4.8-17.9 10.2-38.4 12.1-45.5 2-7.2 4.7-17.3 6-22.5 1.4-5.2 3.2-11.8 4-14.5 3.6-12.7 11.8-44 14.1-53.5 7.9-33.6-.6-68.6-22.7-93.2-6.1-6.9-188.9-189.1-193-192.5-11.1-9-27.6-17.5-38.6-19.7-1.1-.3-4.1-1-6.9-1.6C431 .9 406.7-.3 405.9.4zm-8.4 157.9c25.3 14.5 47.7 27.4 49.7 28.5 2 1.2 5.5 3.2 7.7 4.6 2.2 1.5 4.2 2.6 4.5 2.6.2 0 6.6 3.7 14.2 8.1 7.7 4.5 24.9 14.4 38.4 22.2 13.5 7.7 25.2 14.6 26.1 15.3 1.4 1.3 1.6 12 1.6 110 0 107.8 0 108.6-2 110.5-1.2 1-2.4 1.9-2.8 1.9-.3 0-8.5 4.5-18 10.1-9.6 5.6-19.2 11.1-21.4 12.3-4 2.3-7.8 4.5-59 34.1-15.4 8.9-38.8 22.4-52 30-13.2 7.6-26.2 15.1-29 16.8-4.9 2.9-5 2.9-8 1.2-1.6-.9-5.5-3.1-8.5-4.8-3-1.7-8.8-5-12.8-7.4-4.1-2.4-7.6-4.3-7.8-4.3-.3 0-1.7-.8-3.2-1.9-1.5-1-35.8-20.9-76.2-44.1-40.4-23.2-74.5-42.9-75.8-43.7-2.2-1.3-2.2-1.4-2.2-30.3 0-16 .2-29 .5-29s4.6 3.2 9.5 7.2l9 7.2v32.4l8.5 5.1c4.7 2.8 8.8 5.1 9.1 5.1.3 0 1.8.8 3.2 1.9 1.5 1 4.7 2.9 7.2 4.3s16.2 9.3 30.5 17.5c14.3 8.3 27.8 16.1 30 17.3 2.2 1.2 6 3.4 8.5 4.9 7.5 4.5 8.3 4.9 14 8.2 3 1.7 17.5 10.1 32.3 18.6 26.1 15.1 26.8 15.4 29.7 14.1 1.7-.7 3-1.6 3-2 0-.5.4-.8 1-.8.5 0 3.3-1.4 6.2-3.1 6.2-3.7 10.5-6.2 16.8-9.7 2.5-1.4 5.7-3.3 7.2-4.3 1.4-1.1 2.8-1.9 3.1-1.9.2 0 13-7.3 28.3-16.1 15.4-8.9 29.3-17 30.9-17.9 1.7-.9 14.5-8.4 28.5-16.5 27.6-16 28.8-16.6 37-21.3l5.5-3.1v-97.9c0-100.1 0-101.2-3.5-101.2-.4 0-5.7-2.9-11.8-6.4-6.1-3.6-13.1-7.6-15.4-8.9-2.4-1.3-16.8-9.7-32.2-18.6-15.3-8.8-28.2-16.1-28.7-16.1s-.9-.5-.9-1c0-.6-.5-1-1.1-1-.6 0-5.6-2.7-11.1-6-5.4-3.3-10-6-10.2-6-.2 0-6.6-3.7-14.2-8.1-7.7-4.5-15.7-9.2-17.9-10.4-2.2-1.3-8-4.7-13-7.5-4.9-2.9-9.5-5.3-10-5.3-.8 0-21.4 11.4-29.5 16.3-.8.5-5.3 3.2-10 5.8-4.7 2.7-16.1 9.3-25.5 14.7-22.9 13.3-56.2 32.5-83.3 48.1L180 251.4v55.7l.1 55.6 2.4 5c3.4 6.7 8.7 9.7 16.7 9.5 8.8-.2 13.2-3.1 16.4-10.7 1.4-3.4 1.7-8.3 1.7-31.8l.1-27.7h9.2c6.5 0 9.3.4 9.6 1.2 1.1 3.1.1 56.5-1.1 60.8-2.8 9.7-8.8 17.7-16.5 21.7-9.2 4.8-26.4 5.4-36.8 1.3-10.1-4-17.5-13.4-19.7-25.1-.6-3.2-1-29.4-1.1-66.1v-60.7l8.2-4.6c4.6-2.5 9-5 9.8-5.5.8-.5 5.3-3.2 10-5.9s21.6-12.4 37.5-21.6c16-9.2 30.5-17.6 32.3-18.6 14-8 17.9-10.3 26.7-15.4 9.7-5.6 24.2-14 33.5-19.3 2.5-1.4 7.8-4.5 11.8-6.9 4.1-2.4 7.6-4.3 7.8-4.3.2 0 2.3-1.2 4.7-2.8 4.6-2.9 6.9-4.1 7.7-3.7.3.1 21.2 12.2 46.5 26.8zm-273 148.3c5.6 1.9 17.5 9.2 17.5 10.9 0 .6-2.9 3.9-6.5 7.4l-6.6 6.3-2.7-1.8c-11-7.3-23.4-6.8-32.3 1.3-14.9 13.4-9.7 37 9.5 43.3 6.1 2 14.9.8 20.8-2.9l5-3.1 6.8 6.9 6.8 6.9-4.7 3.5c-6.3 4.7-9.9 6.4-17.2 8.1-27.2 6.4-53.8-13.5-55.3-41.5-1.7-31.2 29.2-54.9 58.9-45.3zm342.8 0c6.2 2.1 12.7 5.7 15.7 8.9l2.3 2.5-5.4 5.5c-7.6 7.8-8.3 8.1-12.2 5.2-4.6-3.5-8.9-4.6-15.5-4.3-6.4.3-11.1 2.4-16 7-12.3 11.5-10.1 30.8 4.5 40.1 4.3 2.7 5.6 3 12.8 3 8 0 10.1-.7 16.2-5.1 2-1.5 2.4-1.3 8.7 5.1 3.6 3.6 6.6 6.8 6.6 7.2 0 1.5-12.6 9.8-16.5 10.7-9.9 2.3-14.3 2.7-21.5 1.7-27.8-4.1-45-32.3-36-59 4.1-12.2 11.7-20.7 23.6-26.3 10.2-4.8 22.2-5.6 32.7-2.2zm-149.5-.1c7 1.6 12.5 5.5 15.7 10.9 4.8 8.2 4.2 18.4-1.5 24.9l-2.9 3.3 3.5 2.7c7.2 5.8 10 16.3 6.9 26.1-2.8 9-10.2 15.1-21.2 17.7-3.7.8-42.5 1.6-51 1-1-.1-1.3-9.6-1.3-44.1v-43.9l23.3.1c14.2.1 25.2.6 28.5 1.3zm66.8 42.5c0 24.2-.2 44-.5 44-1.1.1-17.6.2-18.8.1-.9-.1-1.2-10.5-1.2-44.1l.1-44h20.4v44z"/><path d="M286.6 324.2c-1 .6-1.5 9.6-.7 13.9.1.8 25.2.4 27.7-.4 4.9-1.7 5.1-10.2.4-12.7-2.4-1.3-25.4-1.9-27.4-.8zM286.2 358.4c-.6.9-.9 11-.3 15.2.1.7 4.7 1 14.5.9 11.8-.1 15-.5 17.1-1.9 5-3.3 5.1-9.3.3-12.9-2.3-1.7-4.5-2-16.7-2.2-9.2-.1-14.4.2-14.9.9z"/></svg>