<?xml version="1.0" encoding="utf-8"?>
<!-- Generator: Adobe Illustrator 22.1.0, SVG Export Plug-In . SVG Version: 6.00 Build 0)  -->
<svg version="1.1" id="Layer_1" xmlns="http://www.w3.org/2000/svg" xmlns:xlink="http://www.w3.org/1999/xlink" x="0px" y="0px"
	 viewBox="0 0 606.7 606.7" style="enable-background:new 0 0 606.7 606.7;" xml:space="preserve">
<style type="text/css">
	.st0{fill:#142C52;}
</style>
<g>
	<path class="st0" d="M276.5,312.1c-1.8-1.6-5.2-2.3-10.2-2.3h-18.8v14.9h18.8c5,0,8.4-0.8,10.2-2.3c1.5-1.2,2.1-2.8,2.1-5.2
		C278.6,314.9,277.9,313.2,276.5,312.1z"/>
	<path class="st0" d="M580.6,182.9L423.7,26.1C401.2,3.6,368.4-5.2,337.7,3L123.4,60.4c-30.7,8.2-54.8,32.3-63,63L3,337.7
		c-8.2,30.7,0.6,63.5,23.1,86.1l156.9,156.8c22.5,22.5,55.3,31.3,86,23.1l214.3-57.4c30.7-8.2,54.8-32.2,63-63L603.7,269
		C611.9,238.3,603.1,205.5,580.6,182.9z M95.9,325.2c5.9,0,11.5-2.3,15.7-6.5l12.1,12.1c-7.4,7.4-17.3,11.5-27.8,11.5
		c-21.7,0-39.3-17.6-39.3-39.3c0-21.7,17.6-39.3,39.3-39.3c10.5,0,20.4,4.1,27.8,11.5l-12.1,12.1c-4.2-4.2-9.8-6.5-15.7-6.5
		c-12.2,0-22.2,10-22.2,22.2C73.7,315.2,83.6,325.2,95.9,325.2z M467.7,397.8l-164.1,94.7l-164.1-94.7v-51l16.6,13.3v28.2
		l147.5,85.2l147.5-85.2V217.9l-147.5-85.2l-147.5,85.2l-0.1,90.8c0,12.2,6.1,18.5,16.2,18.5c10.1,0,16.2-6.1,16.2-18v-43H205v42.3
		c0,22.7-12.8,33.9-32.9,33.9c-20.2,0-32.5-11.3-32.5-33.3V208.3l164.1-94.7l164.1,94.7V397.8z M295.5,317.2c0,6-1.7,10.8-5.1,14.9
		c-5,5.8-13.2,8.8-24.1,8.8h-35.8v-76.3h35.8c6.6,0,12,1.2,16.2,3.6c5.8,3.3,9.6,10,9.6,17.1c0,5.8-2.3,10.6-6.9,14.2
		C291.7,303,295.5,309.6,295.5,317.2z M315.6,340.8v-76.3h17.8v76.3H315.6z M393.1,325.2c5.9,0,11.5-2.3,15.7-6.5l12.1,12.1
		c-7.4,7.4-17.3,11.5-27.8,11.5c-21.7,0-39.3-17.6-39.3-39.3c0-21.7,17.6-39.3,39.3-39.3c10.5,0,20.4,4.1,27.8,11.5l-12.1,12.1
		c-4.2-4.2-9.8-6.5-15.7-6.5c-12.2,0-22.2,10-22.2,22.2C370.9,315.2,380.9,325.2,393.1,325.2z"/>
	<path class="st0" d="M273.1,292.1c1.6-1.1,2.4-2.8,2.4-5s-0.8-3.8-2.4-5c-1.4-1-3.7-1.5-6.8-1.5h-18.8v12.9h18.8
		C269.4,293.6,271.7,293.1,273.1,292.1z"/>
</g>
</svg>
