<svg enable-background="new 0 0 606.7 606.7" viewBox="0 0 606.7 606.7" xmlns="http://www.w3.org/2000/svg"><g fill="#142c52"><path d="m276.5 312.1c-1.8-1.6-5.2-2.3-10.2-2.3h-18.8v14.9h18.8c5 0 8.4-.8 10.2-2.3 1.5-1.2 2.1-2.8 2.1-5.2 0-2.3-.7-4-2.1-5.1z"/><path d="m580.6 182.9-156.9-156.8c-22.5-22.5-55.3-31.3-86-23.1l-214.3 57.4c-30.7 8.2-54.8 32.3-63 63l-57.4 214.3c-8.2 30.7.6 63.5 23.1 86.1l156.9 156.8c22.5 22.5 55.3 31.3 86 23.1l214.3-57.4c30.7-8.2 54.8-32.2 63-63l57.4-214.3c8.2-30.7-.6-63.5-23.1-86.1zm-484.7 142.3c5.9 0 11.5-2.3 15.7-6.5l12.1 12.1c-7.4 7.4-17.3 11.5-27.8 11.5-21.7 0-39.3-17.6-39.3-39.3s17.6-39.3 39.3-39.3c10.5 0 20.4 4.1 27.8 11.5l-12.1 12.1c-4.2-4.2-9.8-6.5-15.7-6.5-12.2 0-22.2 10-22.2 22.2s9.9 22.2 22.2 22.2zm371.8 72.6-164.1 94.7-164.1-94.7v-51l16.6 13.3v28.2l147.5 85.2 147.5-85.2v-170.4l-147.5-85.2-147.5 85.2-.1 90.8c0 12.2 6.1 18.5 16.2 18.5s16.2-6.1 16.2-18v-43h16.6v42.3c0 22.7-12.8 33.9-32.9 33.9-20.2 0-32.5-11.3-32.5-33.3v-100.8l164.1-94.7 164.1 94.7v189.5zm-172.2-80.6c0 6-1.7 10.8-5.1 14.9-5 5.8-13.2 8.8-24.1 8.8h-35.8v-76.3h35.8c6.6 0 12 1.2 16.2 3.6 5.8 3.3 9.6 10 9.6 17.1 0 5.8-2.3 10.6-6.9 14.2 6.5 3.5 10.3 10.1 10.3 17.7zm20.1 23.6v-76.3h17.8v76.3zm77.5-15.6c5.9 0 11.5-2.3 15.7-6.5l12.1 12.1c-7.4 7.4-17.3 11.5-27.8 11.5-21.7 0-39.3-17.6-39.3-39.3s17.6-39.3 39.3-39.3c10.5 0 20.4 4.1 27.8 11.5l-12.1 12.1c-4.2-4.2-9.8-6.5-15.7-6.5-12.2 0-22.2 10-22.2 22.2s10 22.2 22.2 22.2z"/><path d="m273.1 292.1c1.6-1.1 2.4-2.8 2.4-5s-.8-3.8-2.4-5c-1.4-1-3.7-1.5-6.8-1.5h-18.8v12.9h18.8c3.1.1 5.4-.4 6.8-1.4z"/></g></svg>